<?xml version="1.0" encoding="utf-8"?>
<!-- Generator: Adobe Illustrator 27.7.0, SVG Export Plug-In . SVG Version: 6.00 Build 0)  -->
<svg version="1.1" id="レイヤー_1" xmlns="http://www.w3.org/2000/svg" xmlns:xlink="http://www.w3.org/1999/xlink" x="0px"
	 y="0px" viewBox="0 0 500 500" style="enable-background:new 0 0 500 500;" xml:space="preserve">
<path d="M355.6,365L355.6,365l-179.5,0l0-30h177.8v0l29.9,0l0-20H176.1c-0.1,0-0.2,0-0.4,0l-29.5,0l0-40l49.7,0c0.1,0,0.1,0,0.2,0
	h169.5v-20h-11.6H196c-5.5,0-10-4.5-10-10s4.5-10,10-10h149.6h19.8v-20h-19.8H196h-29.8c-5.5,0-10-4.5-10-10s4.5-10,10-10h167.7
	h11.7v-20H166.2c-0.2,0-0.5,0-0.7,0l-29.3,0l0-20l39.8,0c0,0,0.1,0,0.1,0h177.8l0-20l-19.8,0v0H176l0-40l177.7,0l0-20H176
	c-11,0-20,9-20,20v40h-19.9c-11,0-20,9-20,20v20c0,11,9,20,20,20h1.8c-1.1,3.1-1.7,6.5-1.7,10c0,16.5,13.5,30,30,30h1.5
	c-1.1,3.1-1.7,6.5-1.7,10s0.6,6.9,1.7,10h-21.6c-11,0-20,9-20,20v40c0,11,9,20,20,20h9.9v30c0,0.6,0,1.1,0.1,1.7
	c-11.7,4.1-20.1,15.2-20.1,28.3c0,16.5,13.5,30,30,30h189.5v-20H166.1c-5.5,0-10-4.5-10-10s4.5-10,10-10h10h179.5h28.3l0-20
	L355.6,365z"/>
</svg>
